<?xml version="1.0" encoding="UTF-8" standalone="no"?>
<svg
   xmlns:dc="http://purl.org/dc/elements/1.1/"
   xmlns:cc="http://creativecommons.org/ns#"
   xmlns:rdf="http://www.w3.org/1999/02/22-rdf-syntax-ns#"
   xmlns:svg="http://www.w3.org/2000/svg"
   xmlns="http://www.w3.org/2000/svg"
   xmlns:sodipodi="http://sodipodi.sourceforge.net/DTD/sodipodi-0.dtd"
   xmlns:inkscape="http://www.inkscape.org/namespaces/inkscape"
   fill="#bfbfbf"
   height="35"
   viewBox="0 0 24 24"
   width="35"
   version="1.1"
   id="svg6"
   sodipodi:docname="file.svg"
   inkscape:version="0.92.2 (5c3e80d, 2017-08-06)">
  <metadata
     id="metadata12">
    <rdf:RDF>
      <cc:Work
         rdf:about="">
        <dc:format>image/svg+xml</dc:format>
        <dc:type
           rdf:resource="http://purl.org/dc/dcmitype/StillImage" />
      </cc:Work>
    </rdf:RDF>
  </metadata>
  <defs
     id="defs10" />
  <sodipodi:namedview
     pagecolor="#ffffff"
     bordercolor="#666666"
     borderopacity="1"
     objecttolerance="10"
     gridtolerance="10"
     guidetolerance="10"
     inkscape:pageopacity="0"
     inkscape:pageshadow="2"
     inkscape:window-width="1920"
     inkscape:window-height="1001"
     id="namedview8"
     showgrid="false"
     inkscape:zoom="3.4766083"
     inkscape:cx="58.407661"
     inkscape:cy="-38.620496"
     inkscape:window-x="-9"
     inkscape:window-y="-9"
     inkscape:window-maximized="1"
     inkscape:current-layer="svg6" />
  <path
     d="M 6 2 C 4.9 2 4.0097656 2.9 4.0097656 4 L 4 20 C 4 21.1 4.8902344 22 5.9902344 22 L 18 22 C 19.1 22 20 21.1 20 20 L 20 8 L 14 2 L 6 2 z M 13 3.5 L 18.5 9 L 13 9 L 13 3.5 z M 11.099609 11.455078 L 12.845703 11.455078 L 12.845703 14.074219 L 15.462891 14.074219 L 15.462891 15.820312 L 12.845703 15.820312 L 12.845703 18.439453 L 11.099609 18.439453 L 11.099609 15.820312 L 8.4804688 15.820312 L 8.4804688 14.074219 L 11.099609 14.074219 L 11.099609 11.455078 z "
     id="path2" />
  <path
     d="M0 0h24v24H0z"
     fill="none"
     id="path4" />
</svg>
