<?xml version="1.0" encoding="UTF-8" standalone="no"?>
<svg
   xmlns:dc="http://purl.org/dc/elements/1.1/"
   xmlns:cc="http://creativecommons.org/ns#"
   xmlns:rdf="http://www.w3.org/1999/02/22-rdf-syntax-ns#"
   xmlns:svg="http://www.w3.org/2000/svg"
   xmlns="http://www.w3.org/2000/svg"
   xmlns:sodipodi="http://sodipodi.sourceforge.net/DTD/sodipodi-0.dtd"
   xmlns:inkscape="http://www.inkscape.org/namespaces/inkscape"
   fill="#bfbfbf"
   height="35"
   viewBox="0 0 24 24"
   width="35"
   version="1.1"
   id="svg6"
   sodipodi:docname="ic_view_list_black_24px.svg"
   inkscape:version="0.92.2 (5c3e80d, 2017-08-06)">
  <metadata
     id="metadata12">
    <rdf:RDF>
      <cc:Work
         rdf:about="">
        <dc:format>image/svg+xml</dc:format>
        <dc:type
           rdf:resource="http://purl.org/dc/dcmitype/StillImage" />
      </cc:Work>
    </rdf:RDF>
  </metadata>
  <defs
     id="defs10" />
  <sodipodi:namedview
     pagecolor="#ffffff"
     bordercolor="#666666"
     borderopacity="1"
     objecttolerance="10"
     gridtolerance="10"
     guidetolerance="10"
     inkscape:pageopacity="0"
     inkscape:pageshadow="2"
     inkscape:window-width="1920"
     inkscape:window-height="1001"
     id="namedview8"
     showgrid="false"
     inkscape:zoom="13.906433"
     inkscape:cx="14.845657"
     inkscape:cy="16.933139"
     inkscape:window-x="-9"
     inkscape:window-y="-9"
     inkscape:window-maximized="1"
     inkscape:current-layer="svg6" />
  <path
     d="M0 0h24v24H0z"
     fill="none"
     id="path4" />
  <path
     id="path4631"
     d="m 4.2154103,8.4286476 c -1.9969373,0 -3.61592441,1.6189874 -3.61592441,3.6159244 0,1.996937 1.61898711,3.615925 3.61592441,3.615925 1.996938,0 3.6159253,-1.618988 3.6159253,-3.615925 0,-1.996937 -1.6189873,-3.6159244 -3.6159253,-3.6159244 z M 6.2769184,13.362232 5.5326403,14.10651 4.2154103,12.788849 2.8977502,14.10608 2.1534725,13.361801 3.471563,12.044572 2.1539028,10.726912 2.8981807,9.9830648 4.2154103,11.300294 5.5330707,9.9826342 l 0.7442782,0.7442778 -1.318091,1.31766 z"
     inkscape:connector-curvature="0"
     style="stroke-width:0.43046725" />
  <path
     sodipodi:nodetypes="ccccccccccccccc"
     inkscape:connector-curvature="0"
     id="path4581"
     d="M 9.0582418,14.063079 H 21.058242 v -4 H 9.0582418 Z m -2.0000002,5 H 19.058242 v -4 H 7.0582416 Z m 0,-13.9999999 v 4 H 19.058242 v -4 z" />
</svg>
